<svg xmlns="http://www.w3.org/2000/svg" xmlns:xlink="http://www.w3.org/1999/xlink" style="display:none"><symbol id="icon_arrow_left"><path fill-rule="evenodd" fill="#FFF" d="M22.182 46.514c.322.324.724.486 1.167.486.442 0 .845-.162 1.166-.486a1.67 1.67 0 0 0 0-2.35L4.002 23.5 24.515 2.835a1.67 1.67 0 0 0 0-2.35 1.643 1.643 0 0 0-2.333 0L.462 22.325a1.673 1.673 0 0 0 0 2.35l21.72 21.839z"/></symbol><symbol id="icon_arrow_right" viewBox="0 0 477.175 477.175">
<g>
	<path d="M360.731,229.075l-225.1-225.1c-5.3-5.3-13.8-5.3-19.1,0s-5.3,13.8,0,19.1l215.5,215.5l-215.5,215.5
		c-5.3,5.3-5.3,13.8,0,19.1c2.6,2.6,6.1,4,9.5,4c3.4,0,6.9-1.3,9.5-4l225.1-225.1C365.931,242.875,365.931,234.275,360.731,229.075z
		"/>
</g>
<g>
</g>
<g>
</g>
<g>
</g>
<g>
</g>
<g>
</g>
<g>
</g>
<g>
</g>
<g>
</g>
<g>
</g>
<g>
</g>
<g>
</g>
<g>
</g>
<g>
</g>
<g>
</g>
<g>
</g>
</symbol><symbol id="icon_facebook">
  <path data-name="Forma 1" d="M9.623 0h-2.4c-2.7 0-4.436 1.84-4.436 4.68v2.15H.375a.387.387 0 0 0-.377.39v3.12a.381.381 0 0 0 .377.39h2.412v7.88a.38.38 0 0 0 .377.39H6.31a.38.38 0 0 0 .377-.39v-7.88h2.82a.381.381 0 0 0 .377-.39V7.22a.386.386 0 0 0-.11-.27.352.352 0 0 0-.267-.12h-2.82V5a1.087 1.087 0 0 1 1.317-1.32H9.62a.381.381 0 0 0 .377-.39V.39A.387.387 0 0 0 9.623 0z" fill-rule="evenodd"/>
</symbol><symbol id="icon_facebook_small" viewBox="0 0 8 16">
<path d="M2.32424 16V8.84375H0V6H2.32424V3.75938C2.32424 1.325 3.76667 0 5.87273 0C6.88182 0 7.74849 0.078125 8 0.1125V2.65625H6.53939C5.39394 2.65625 5.17273 3.21875 5.17273 4.04063V6H7.75758L7.40303 8.84375H5.17273V16" fill="#7D7D7D"/>
</symbol><symbol id="icon_hamburger" viewBox="0 0 459 459">
<g>
	<g id="menu">
		<path d="M0,382.5h459v-51H0V382.5z M0,255h459v-51H0V255z M0,76.5v51h459v-51H0z"/>
	</g>
</g>
<g>
</g>
<g>
</g>
<g>
</g>
<g>
</g>
<g>
</g>
<g>
</g>
<g>
</g>
<g>
</g>
<g>
</g>
<g>
</g>
<g>
</g>
<g>
</g>
<g>
</g>
<g>
</g>
<g>
</g>
</symbol><symbol id="icon_instagram">
  <path data-name="Forma 1" d="M15.2 0H5.79A5.8 5.8 0 0 0 0 5.8v9.4A5.8 5.8 0 0 0 5.79 21h9.41a5.8 5.8 0 0 0 5.8-5.8V5.8A5.8 5.8 0 0 0 15.2 0zm3.94 15.2a3.948 3.948 0 0 1-3.94 3.94H5.79a3.946 3.946 0 0 1-3.93-3.94V5.8a3.946 3.946 0 0 1 3.93-3.94h9.41a3.948 3.948 0 0 1 3.94 3.94v9.4zM10.5 5.09a5.41 5.41 0 1 0 5.41 5.41 5.42 5.42 0 0 0-5.41-5.41zm0 8.96a3.55 3.55 0 1 1 3.55-3.55 3.551 3.551 0 0 1-3.55 3.55zm5.64-10.54a1.37 1.37 0 0 0-.97.4 1.364 1.364 0 0 0 0 1.93 1.37 1.37 0 0 0 .97.4 1.33 1.33 0 0 0 .96-.4 1.364 1.364 0 0 0 0-1.93 1.33 1.33 0 0 0-.96-.4z" fill-rule="evenodd"/>
</symbol><symbol id="icon_instagram_small" viewBox="0 0 13 13">
<path fill-rule="evenodd" clip-rule="evenodd" d="M9.40952 0H3.58429C2.63311 0.00163997 1.72144 0.380645 1.04944 1.05381C0.37743 1.72698 -1.41376e-06 2.63929 0 3.59048L0 9.40952C-1.41376e-06 10.3607 0.37743 11.273 1.04944 11.9462C1.72144 12.6194 2.63311 12.9984 3.58429 13H9.40952C10.3618 13 11.275 12.6217 11.9484 11.9484C12.6217 11.275 13 10.3618 13 9.40952V3.59048C13 2.63822 12.6217 1.72497 11.9484 1.05163C11.275 0.378281 10.3618 0 9.40952 0V0ZM11.8486 9.40952C11.8473 10.056 11.5899 10.6756 11.1327 11.1327C10.6756 11.5899 10.056 11.8473 9.40952 11.8486H3.58429C2.93879 11.846 2.32056 11.5879 1.8647 11.1309C1.40884 10.6739 1.1524 10.055 1.15143 9.40952V3.59048C1.1524 2.94497 1.40884 2.32609 1.8647 1.86907C2.32056 1.41205 2.93879 1.15405 3.58429 1.15143H9.40952C10.056 1.15274 10.6756 1.41013 11.1327 1.86725C11.5899 2.32438 11.8473 2.944 11.8486 3.59048V9.40952ZM6.5 3.15095C5.83762 3.15095 5.19012 3.34737 4.63937 3.71537C4.08862 4.08337 3.65936 4.60642 3.40588 5.21838C3.1524 5.83033 3.08608 6.50372 3.2153 7.15337C3.34453 7.80302 3.66349 8.39976 4.13187 8.86813C4.60024 9.33651 5.19698 9.65547 5.84663 9.7847C6.49628 9.91392 7.16967 9.8476 7.78163 9.59412C8.39358 9.34064 8.91663 8.91138 9.28463 8.36063C9.65263 7.80988 9.84905 7.16238 9.84905 6.5C9.84741 5.61228 9.49404 4.76139 8.86633 4.13367C8.23861 3.50596 7.38772 3.15259 6.5 3.15095V3.15095ZM6.5 8.69762C6.06535 8.69762 5.64046 8.56873 5.27907 8.32725C4.91767 8.08578 4.636 7.74256 4.46966 7.34099C4.30333 6.93943 4.25981 6.49756 4.34461 6.07127C4.4294 5.64497 4.63871 5.25339 4.94605 4.94605C5.25339 4.63871 5.64497 4.4294 6.07127 4.34461C6.49756 4.25981 6.93943 4.30333 7.34099 4.46966C7.74256 4.636 8.08578 4.91767 8.32725 5.27907C8.56873 5.64046 8.69762 6.06535 8.69762 6.5C8.69746 7.08279 8.46587 7.64167 8.05377 8.05377C7.64167 8.46587 7.08279 8.69746 6.5 8.69762V8.69762ZM9.99143 2.17286C9.87998 2.17265 9.76958 2.19442 9.66655 2.2369C9.56351 2.27939 9.46986 2.34177 9.39095 2.42048C9.31245 2.4989 9.25018 2.59202 9.20769 2.69452C9.1652 2.79702 9.14333 2.9069 9.14333 3.01786C9.14333 3.12882 9.1652 3.23869 9.20769 3.34119C9.25018 3.4437 9.31245 3.53682 9.39095 3.61524C9.46986 3.69394 9.56351 3.75632 9.66655 3.79881C9.76958 3.8413 9.87998 3.86306 9.99143 3.86286C10.102 3.86362 10.2117 3.84209 10.3138 3.79954C10.4159 3.757 10.5084 3.69432 10.5857 3.61524C10.6642 3.53682 10.7265 3.4437 10.769 3.34119C10.8115 3.23869 10.8333 3.12882 10.8333 3.01786C10.8333 2.9069 10.8115 2.79702 10.769 2.69452C10.7265 2.59202 10.6642 2.4989 10.5857 2.42048C10.5084 2.3414 10.4159 2.27872 10.3138 2.23617C10.2117 2.19363 10.102 2.17209 9.99143 2.17286V2.17286Z" fill="#828282"/>
</symbol><symbol id="icon_naver" viewBox="0 0 1998 1769">
  <path d="M0 1768.694h691.599l6.438-718.44-48.005-222.488 656.538 929.008 691.37 9.73-3.14-1758.25-689.36-3.018 12.34 702.493 49.45 285.14L694.326 3.93 4.088-.001 0 1768.695z"/>
</symbol><symbol id="icon_naver_small" viewBox="0 0 11 10">
<path fill-rule="evenodd" clip-rule="evenodd" d="M0 10.0002H3.8076L3.84305 5.93888L3.57875 4.68117L7.19333 9.93277L10.9997 9.98777L10.9824 0.0485416L7.18711 0.0314811L7.25505 4.00261L7.52729 5.61448L3.82262 0.0240984L0.0225065 0.00187683L0 10.0002V10.0002Z" fill="#828282"/>
</symbol><symbol id="icon_twitter">
  <path data-name="Forma 1" d="M21.393.33a9.191 9.191 0 0 1-2.868 1.11A4.469 4.469 0 0 0 15.232 0a4.532 4.532 0 0 0-4.514 4.54 4.585 4.585 0 0 0 .117 1.04 12.785 12.785 0 0 1-9.3-4.75 4.574 4.574 0 0 0 1.4 6.07 4.562 4.562 0 0 1-2.044-.57v.05a4.539 4.539 0 0 0 3.62 4.46 4.648 4.648 0 0 1-1.189.16 4.765 4.765 0 0 1-.85-.08 4.537 4.537 0 0 0 4.215 3.16 9.064 9.064 0 0 1-5.6 1.94 9.559 9.559 0 0 1-1.077-.06A12.821 12.821 0 0 0 19.769 5.07l-.015-.59a9.15 9.15 0 0 0 2.256-2.35 9.029 9.029 0 0 1-2.591.72A4.6 4.6 0 0 0 21.393.33z" fill-rule="evenodd"/>
</symbol><symbol id="icon_twitter_small" viewBox="0 0 15 12">
<path d="M13.4582 2.99061C13.4677 3.12186 13.4677 3.25313 13.4677 3.38437C13.4677 7.38748 10.3744 12 4.72083 12C2.97906 12 1.36105 11.5031 0 10.6406C0.247472 10.6687 0.485393 10.6781 0.742386 10.6781C2.17955 10.6781 3.50254 10.2 4.55902 9.38439C3.20749 9.35625 2.07487 8.48438 1.68464 7.28437C1.87501 7.31248 2.06535 7.33124 2.26524 7.33124C2.54125 7.33124 2.81729 7.29372 3.07425 7.22813C1.66562 6.94686 0.609114 5.72812 0.609114 4.25624V4.21876C1.01836 4.44376 1.49429 4.58438 1.9987 4.60311C1.17065 4.05935 0.628157 3.13124 0.628157 2.08123C0.628157 1.51874 0.780413 1.00311 1.04693 0.553111C2.56026 2.39061 4.83503 3.59059 7.38577 3.72186C7.33819 3.49686 7.30963 3.26251 7.30963 3.02813C7.30963 1.35936 8.6802 2.11358e-08 10.3839 2.11358e-08C11.269 2.11358e-08 12.0685 0.365624 12.6301 0.95625C13.3249 0.825006 13.9911 0.571868 14.5812 0.225002C14.3528 0.928143 13.8674 1.51877 13.2297 1.89374C13.8484 1.82815 14.448 1.65936 15 1.42501C14.5813 2.02499 14.0578 2.55934 13.4582 2.99061Z" fill="#828282"/>
</symbol><symbol id="icon_website" viewBox="0 0 13 13">
<path d="M8.2929 4.7072C9.80991 6.22578 9.78909 8.66046 8.30204 10.1558C8.29924 10.1588 8.29594 10.1621 8.2929 10.1652L6.58665 11.8714C5.08174 13.3763 2.63335 13.3761 1.12868 11.8714C-0.376226 10.3668 -0.376226 7.91809 1.12868 6.41344L2.07082 5.4713C2.32067 5.22146 2.75094 5.38751 2.76383 5.74059C2.78029 6.19057 2.86098 6.64264 3.00987 7.07921C3.06029 7.22703 3.02427 7.39055 2.91382 7.501L2.58153 7.83328C1.86993 8.54488 1.84761 9.70356 2.5522 10.4221C3.26375 11.1477 4.43329 11.1521 5.1503 10.4351L6.85655 8.72906C7.57234 8.01328 7.56934 6.85633 6.85655 6.14354C6.76258 6.04975 6.66792 5.97688 6.59398 5.92597C6.54168 5.89005 6.49849 5.84241 6.46786 5.78683C6.43724 5.73126 6.42003 5.6693 6.4176 5.6059C6.40754 5.33759 6.5026 5.06112 6.71462 4.8491L7.24919 4.31451C7.38937 4.17432 7.60928 4.15711 7.77183 4.27056C7.95799 4.40054 8.13235 4.54665 8.2929 4.7072ZM11.8713 1.1286C10.3667 -0.376098 7.91826 -0.376301 6.41336 1.1286L4.70711 2.83485C4.70406 2.83789 4.70076 2.84119 4.69796 2.84424C3.21094 4.33954 3.19009 6.77422 4.70711 8.2928C4.86765 8.45334 5.042 8.59944 5.22815 8.72942C5.3907 8.84286 5.61063 8.82562 5.75079 8.68547L6.28536 8.15087C6.49737 7.93886 6.59244 7.66238 6.58238 7.39408C6.57995 7.33067 6.56274 7.26871 6.53211 7.21314C6.50149 7.15757 6.4583 7.10992 6.40599 7.074C6.33206 7.0231 6.2374 6.95023 6.14343 6.85643C5.43064 6.14364 5.42764 4.9867 6.14343 4.27091L7.84968 2.56492C8.56668 1.84791 9.7362 1.85223 10.4478 2.57787C11.1524 3.29642 11.1301 4.45509 10.4184 5.16669L10.0862 5.49898C9.97571 5.60943 9.93968 5.77294 9.99011 5.92076C10.139 6.35733 10.2197 6.80941 10.2361 7.25938C10.2491 7.61246 10.6793 7.77852 10.9292 7.52867L11.8713 6.58653C13.3762 5.08191 13.3762 2.63324 11.8713 1.1286Z"/>
</symbol><symbol id="icon_wechat" viewBox="0 0 25 21">
<path d="M16.9182 6.35483C17.2091 6.35483 17.4909 6.36889 17.7727 6.40638C17.0182 2.7322 13.1955 0 8.85 0C3.97727 0 0 3.41174 0 7.75139C0 10.254 1.33182 12.3207 3.54091 13.9188L2.66364 16.665L5.75455 15.0669C6.86364 15.2919 7.74545 15.5215 8.85455 15.5215C9.13636 15.5215 9.40455 15.5075 9.68636 15.484C9.50455 14.8795 9.40455 14.2374 9.40455 13.572C9.4 9.59317 12.7182 6.35483 16.9182 6.35483V6.35483ZM12.1682 3.8757C12.8273 3.8757 13.2682 4.33028 13.2682 5.01919C13.2682 5.69873 12.8273 6.15331 12.1682 6.15331C11.4955 6.15331 10.8364 5.69873 10.8364 5.01919C10.8409 4.33028 11.5 3.8757 12.1682 3.8757ZM5.96818 6.15331C5.30909 6.15331 4.63636 5.69873 4.63636 5.01919C4.63636 4.3256 5.30909 3.8757 5.96818 3.8757C6.64091 3.8757 7.07727 4.33028 7.07727 5.01919C7.07727 5.70341 6.64091 6.15331 5.96818 6.15331ZM25 13.4689C25 9.81812 21.4591 6.84691 17.4818 6.84691C13.2682 6.84691 9.96364 9.81812 9.96364 13.4689C9.96364 17.1196 13.2727 20.0908 17.4818 20.0908C18.3591 20.0908 19.25 19.8518 20.1455 19.6269L22.5727 21L21.9 18.7224C23.6818 17.3446 25 15.5215 25 13.4689ZM15.0409 12.3207C14.6 12.3207 14.1636 11.8661 14.1636 11.4021C14.1636 10.9476 14.6045 10.4977 15.0409 10.4977C15.7136 10.4977 16.15 10.9522 16.15 11.4021C16.15 11.8708 15.7091 12.3207 15.0409 12.3207ZM19.9091 12.3207C19.4682 12.3207 19.0318 11.8661 19.0318 11.4021C19.0318 10.9476 19.4727 10.4977 19.9091 10.4977C20.5682 10.4977 21.0182 10.9522 21.0182 11.4021C21.0227 11.8708 20.5682 12.3207 19.9091 12.3207Z"/>
</symbol><symbol id="icon_weibo">
  <path data-name="Forma 1" d="M19.12 11.59c-.35-.11-.6-.19-.41-.68a2.9 2.9 0 0 0 .01-2.64c-.83-1.23-3.09-1.16-5.68-.03 0 0-.82.37-.61-.3.4-1.34.34-2.46-.28-3.1C10.74 3.37 7 4.89 3.8 8.23 1.39 10.73 0 13.39 0 15.68 0 20.07 5.4 23 10.68 23c6.92 0 11.53-4.46 11.53-7.79a3.959 3.959 0 0 0-3.09-3.62zm-8.42 9.44c-4.22.43-7.86-1.53-8.13-4.38s2.92-5.5 7.13-5.93 7.86 1.53 8.13 4.38-2.92 5.5-7.13 5.93zM26 8.02A7.931 7.931 0 0 0 18.16 0a.935.935 0 0 0 0 1.87 6.085 6.085 0 0 1 6.01 6.15.915.915 0 1 0 1.83 0zm-3.63-.14a5.3 5.3 0 0 0-4.07-4.16.913.913 0 0 0-1.08.73.935.935 0 0 0 .71 1.1 3.437 3.437 0 0 1 2.64 2.71.923.923 0 0 0 1.08.73.944.944 0 0 0 .72-1.11zM8.53 13.51a2.976 2.976 0 0 0-2.56 3.25 2.908 2.908 0 0 0 3.59 1.99 2.955 2.955 0 0 0 2.56-3.25 2.9 2.9 0 0 0-3.59-1.99z" fill-rule="evenodd"/>
</symbol><symbol id="icon_weibo_small" viewBox="0 0 15 13">
<path fill-rule="evenodd" clip-rule="evenodd" d="M11.0308 6.55087C10.8288 6.4887 10.6846 6.44348 10.7942 6.16652C10.9156 5.93599 10.9795 5.68052 10.9805 5.42111C10.9815 5.16171 10.9196 4.90577 10.8 4.67435C10.3212 3.97913 9.01731 4.0187 7.52308 4.65739C7.52308 4.65739 7.05 4.86652 7.17115 4.48783C7.40192 3.73043 7.36731 3.09739 7.00962 2.73565C6.19615 1.90478 4.03846 2.76391 2.19231 4.65174C0.801923 6.06478 0 7.56826 0 8.86261C0 11.3439 3.11538 13 6.16154 13C10.1538 13 12.8135 10.4791 12.8135 8.59696C12.7829 8.11266 12.5925 7.65121 12.271 7.28216C11.9494 6.91311 11.5142 6.65645 11.0308 6.55087V6.55087ZM6.17308 11.8865C3.73846 12.1296 1.63846 11.0217 1.48269 9.41087C1.32692 7.8 3.16731 6.30217 5.59615 6.05913C8.025 5.81609 10.1308 6.92391 10.2865 8.53478C10.4423 10.1457 8.60192 11.6435 6.17308 11.8865V11.8865ZM15 4.53304C15.0137 3.34432 14.5449 2.19894 13.6966 1.34885C12.8484 0.498754 11.6903 0.0135645 10.4769 0C10.3339 2.08856e-09 10.1967 0.0556788 10.0955 0.154788C9.99433 0.253897 9.9375 0.388317 9.9375 0.528478C9.9375 0.668639 9.99433 0.80306 10.0955 0.902169C10.1967 1.00128 10.3339 1.05696 10.4769 1.05696C11.407 1.06814 12.2945 1.44048 12.9446 2.09222C13.5947 2.74396 13.9542 3.62182 13.9442 4.53304C13.9442 4.60096 13.9579 4.66821 13.9844 4.73096C14.0109 4.7937 14.0498 4.85072 14.0988 4.89874C14.1479 4.94676 14.2061 4.98486 14.2701 5.01085C14.3341 5.03684 14.4028 5.05022 14.4721 5.05022C14.5414 5.05022 14.6101 5.03684 14.6741 5.01085C14.7382 4.98486 14.7964 4.94676 14.8454 4.89874C14.8944 4.85072 14.9333 4.7937 14.9598 4.73096C14.9863 4.66821 15 4.60096 15 4.53304V4.53304ZM12.9058 4.45391C12.7912 3.8803 12.5078 3.35205 12.0906 2.93426C11.6734 2.51646 11.1405 2.22738 10.5577 2.10261C10.4891 2.08893 10.4184 2.0888 10.3497 2.10222C10.281 2.11564 10.2158 2.14234 10.1577 2.18076C10.0997 2.21918 10.0501 2.26855 10.0118 2.32597C9.97348 2.3834 9.94725 2.44774 9.93461 2.51522C9.90622 2.65076 9.93322 2.7918 10.0098 2.90805C10.0864 3.0243 10.2065 3.10649 10.3442 3.13696C10.7232 3.21829 11.0695 3.40677 11.3403 3.67904C11.611 3.9513 11.7942 4.2954 11.8673 4.6687C11.8943 4.80427 11.975 4.92384 12.0918 5.00119C12.2086 5.07853 12.3519 5.10735 12.4904 5.0813C12.6297 5.05093 12.7513 4.96817 12.829 4.85083C12.9067 4.73349 12.9343 4.59096 12.9058 4.45391V4.45391ZM4.92115 7.63609C4.47987 7.69484 4.07916 7.91927 3.80359 8.26201C3.52803 8.60475 3.39917 9.03898 3.44423 9.47304C3.56738 9.8908 3.85449 10.2437 4.24268 10.4545C4.63087 10.6654 5.0885 10.7169 5.51538 10.5978C5.95798 10.5419 6.36057 10.3183 6.63671 9.97481C6.91285 9.63136 7.04052 9.19552 6.99231 8.76087C6.93186 8.55368 6.83031 8.3602 6.69346 8.19151C6.55661 8.02281 6.38716 7.8822 6.19479 7.77773C6.00242 7.67326 5.79091 7.60698 5.57237 7.58267C5.35382 7.55837 5.13253 7.57652 4.92115 7.63609V7.63609Z" fill="#828282"/>
</symbol><symbol id="icon_youtube">
  <path d="M26.72 1.59C25.7.39 23.83-.07 20.28-.01l-12.9.2C3.75.25 1.87.81.89 2.11-.07 3.38-.04 5.23.01 7.78l.08 4.88c.08 4.96 1.29 7.45 7.63 7.35l12.9-.2c3.08-.05 4.78-.51 5.86-1.6 1.11-1.11 1.57-2.9 1.51-5.99l-.08-4.88c-.05-2.7-.15-4.56-1.19-5.75zm-8.75 9.02l-5.8 3.18a.869.869 0 0 1-.41.11.967.967 0 0 1-.47-.12.94.94 0 0 1-.45-.77l-.1-6.16a.9.9 0 0 1 1.3-.83L17.94 9a.911.911 0 0 1 .03 1.61z" fill-rule="evenodd"/>
</symbol><symbol id="icon_youtube_small" viewBox="0 0 17 12">
<path d="M16.6448 1.87759C16.4493 1.13853 15.8732 0.556469 15.1418 0.358938C13.8161 0 8.5 0 8.5 0C8.5 0 3.18398 0 1.85821 0.358938C1.1268 0.5565 0.550746 1.13853 0.355231 1.87759C0 3.21719 -1.21118e-08 6.01213 -1.21118e-08 6.01213C-1.21118e-08 6.01213 0 8.80706 0.355231 10.1467C0.550746 10.8857 1.1268 11.4435 1.85821 11.6411C3.18398 12 8.5 12 8.5 12C8.5 12 13.816 12 15.1418 11.6411C15.8732 11.4435 16.4493 10.8857 16.6448 10.1467C17 8.80706 17 6.01213 17 6.01213C17 6.01213 17 3.21719 16.6448 1.87759ZM6.76135 8.54972V3.47453L11.2045 6.01219L6.76135 8.54972Z" fill="#828282"/>
</symbol><symbol id="slide_left" viewBox="0 0 13 21">
<path d="M0.344799 9.6839L9.87828 0.338057C10.3381 -0.112684 11.0835 -0.112684 11.5432 0.338057L12.6552 1.4281C13.1142 1.87807 13.1151 2.60735 12.6571 3.05838L5.10168 10.5L12.6571 17.9416C13.1151 18.3927 13.1142 19.1219 12.6552 19.5719L11.5432 20.6619C11.0835 21.1127 10.338 21.1127 9.87828 20.6619L0.344848 11.3161C-0.114942 10.8654 -0.114942 10.1346 0.344799 9.6839Z"/>
</symbol><symbol id="slide_right" viewBox="0 0 13 21">
<path d="M12.6552 11.3161L3.12172 20.6619C2.66193 21.1127 1.91649 21.1127 1.45675 20.6619L0.344831 19.5719C-0.114174 19.1219 -0.115057 18.3927 0.342869 17.9416L7.89832 10.5L0.342869 3.05838C-0.115057 2.60735 -0.114174 1.87807 0.344831 1.4281L1.45675 0.338057C1.91654 -0.112686 2.66198 -0.112686 3.12172 0.338057L12.6552 9.6839C13.1149 10.1346 13.1149 10.8654 12.6552 11.3161Z"/>
</symbol></svg>