<svg width="13" height="13" viewBox="0 0 13 13" fill="none" xmlns="http://www.w3.org/2000/svg">
<path fill-rule="evenodd" clip-rule="evenodd" d="M9.40952 0H3.58429C2.63311 0.00163997 1.72144 0.380645 1.04944 1.05381C0.37743 1.72698 -1.41376e-06 2.63929 0 3.59048L0 9.40952C-1.41376e-06 10.3607 0.37743 11.273 1.04944 11.9462C1.72144 12.6194 2.63311 12.9984 3.58429 13H9.40952C10.3618 13 11.275 12.6217 11.9484 11.9484C12.6217 11.275 13 10.3618 13 9.40952V3.59048C13 2.63822 12.6217 1.72497 11.9484 1.05163C11.275 0.378281 10.3618 0 9.40952 0V0ZM11.8486 9.40952C11.8473 10.056 11.5899 10.6756 11.1327 11.1327C10.6756 11.5899 10.056 11.8473 9.40952 11.8486H3.58429C2.93879 11.846 2.32056 11.5879 1.8647 11.1309C1.40884 10.6739 1.1524 10.055 1.15143 9.40952V3.59048C1.1524 2.94497 1.40884 2.32609 1.8647 1.86907C2.32056 1.41205 2.93879 1.15405 3.58429 1.15143H9.40952C10.056 1.15274 10.6756 1.41013 11.1327 1.86725C11.5899 2.32438 11.8473 2.944 11.8486 3.59048V9.40952ZM6.5 3.15095C5.83762 3.15095 5.19012 3.34737 4.63937 3.71537C4.08862 4.08337 3.65936 4.60642 3.40588 5.21838C3.1524 5.83033 3.08608 6.50372 3.2153 7.15337C3.34453 7.80302 3.66349 8.39976 4.13187 8.86813C4.60024 9.33651 5.19698 9.65547 5.84663 9.7847C6.49628 9.91392 7.16967 9.8476 7.78163 9.59412C8.39358 9.34064 8.91663 8.91138 9.28463 8.36063C9.65263 7.80988 9.84905 7.16238 9.84905 6.5C9.84741 5.61228 9.49404 4.76139 8.86633 4.13367C8.23861 3.50596 7.38772 3.15259 6.5 3.15095V3.15095ZM6.5 8.69762C6.06535 8.69762 5.64046 8.56873 5.27907 8.32725C4.91767 8.08578 4.636 7.74256 4.46966 7.34099C4.30333 6.93943 4.25981 6.49756 4.34461 6.07127C4.4294 5.64497 4.63871 5.25339 4.94605 4.94605C5.25339 4.63871 5.64497 4.4294 6.07127 4.34461C6.49756 4.25981 6.93943 4.30333 7.34099 4.46966C7.74256 4.636 8.08578 4.91767 8.32725 5.27907C8.56873 5.64046 8.69762 6.06535 8.69762 6.5C8.69746 7.08279 8.46587 7.64167 8.05377 8.05377C7.64167 8.46587 7.08279 8.69746 6.5 8.69762V8.69762ZM9.99143 2.17286C9.87998 2.17265 9.76958 2.19442 9.66655 2.2369C9.56351 2.27939 9.46986 2.34177 9.39095 2.42048C9.31245 2.4989 9.25018 2.59202 9.20769 2.69452C9.1652 2.79702 9.14333 2.9069 9.14333 3.01786C9.14333 3.12882 9.1652 3.23869 9.20769 3.34119C9.25018 3.4437 9.31245 3.53682 9.39095 3.61524C9.46986 3.69394 9.56351 3.75632 9.66655 3.79881C9.76958 3.8413 9.87998 3.86306 9.99143 3.86286C10.102 3.86362 10.2117 3.84209 10.3138 3.79954C10.4159 3.757 10.5084 3.69432 10.5857 3.61524C10.6642 3.53682 10.7265 3.4437 10.769 3.34119C10.8115 3.23869 10.8333 3.12882 10.8333 3.01786C10.8333 2.9069 10.8115 2.79702 10.769 2.69452C10.7265 2.59202 10.6642 2.4989 10.5857 2.42048C10.5084 2.3414 10.4159 2.27872 10.3138 2.23617C10.2117 2.19363 10.102 2.17209 9.99143 2.17286V2.17286Z" fill="#828282"/>
</svg>
