<svg width="15" height="13" viewBox="0 0 15 13" fill="none" xmlns="http://www.w3.org/2000/svg">
<path fill-rule="evenodd" clip-rule="evenodd" d="M11.0308 6.55087C10.8288 6.4887 10.6846 6.44348 10.7942 6.16652C10.9156 5.93599 10.9795 5.68052 10.9805 5.42111C10.9815 5.16171 10.9196 4.90577 10.8 4.67435C10.3212 3.97913 9.01731 4.0187 7.52308 4.65739C7.52308 4.65739 7.05 4.86652 7.17115 4.48783C7.40192 3.73043 7.36731 3.09739 7.00962 2.73565C6.19615 1.90478 4.03846 2.76391 2.19231 4.65174C0.801923 6.06478 0 7.56826 0 8.86261C0 11.3439 3.11538 13 6.16154 13C10.1538 13 12.8135 10.4791 12.8135 8.59696C12.7829 8.11266 12.5925 7.65121 12.271 7.28216C11.9494 6.91311 11.5142 6.65645 11.0308 6.55087V6.55087ZM6.17308 11.8865C3.73846 12.1296 1.63846 11.0217 1.48269 9.41087C1.32692 7.8 3.16731 6.30217 5.59615 6.05913C8.025 5.81609 10.1308 6.92391 10.2865 8.53478C10.4423 10.1457 8.60192 11.6435 6.17308 11.8865V11.8865ZM15 4.53304C15.0137 3.34432 14.5449 2.19894 13.6966 1.34885C12.8484 0.498754 11.6903 0.0135645 10.4769 0C10.3339 2.08856e-09 10.1967 0.0556788 10.0955 0.154788C9.99433 0.253897 9.9375 0.388317 9.9375 0.528478C9.9375 0.668639 9.99433 0.80306 10.0955 0.902169C10.1967 1.00128 10.3339 1.05696 10.4769 1.05696C11.407 1.06814 12.2945 1.44048 12.9446 2.09222C13.5947 2.74396 13.9542 3.62182 13.9442 4.53304C13.9442 4.60096 13.9579 4.66821 13.9844 4.73096C14.0109 4.7937 14.0498 4.85072 14.0988 4.89874C14.1479 4.94676 14.2061 4.98486 14.2701 5.01085C14.3341 5.03684 14.4028 5.05022 14.4721 5.05022C14.5414 5.05022 14.6101 5.03684 14.6741 5.01085C14.7382 4.98486 14.7964 4.94676 14.8454 4.89874C14.8944 4.85072 14.9333 4.7937 14.9598 4.73096C14.9863 4.66821 15 4.60096 15 4.53304V4.53304ZM12.9058 4.45391C12.7912 3.8803 12.5078 3.35205 12.0906 2.93426C11.6734 2.51646 11.1405 2.22738 10.5577 2.10261C10.4891 2.08893 10.4184 2.0888 10.3497 2.10222C10.281 2.11564 10.2158 2.14234 10.1577 2.18076C10.0997 2.21918 10.0501 2.26855 10.0118 2.32597C9.97348 2.3834 9.94725 2.44774 9.93461 2.51522C9.90622 2.65076 9.93322 2.7918 10.0098 2.90805C10.0864 3.0243 10.2065 3.10649 10.3442 3.13696C10.7232 3.21829 11.0695 3.40677 11.3403 3.67904C11.611 3.9513 11.7942 4.2954 11.8673 4.6687C11.8943 4.80427 11.975 4.92384 12.0918 5.00119C12.2086 5.07853 12.3519 5.10735 12.4904 5.0813C12.6297 5.05093 12.7513 4.96817 12.829 4.85083C12.9067 4.73349 12.9343 4.59096 12.9058 4.45391V4.45391ZM4.92115 7.63609C4.47987 7.69484 4.07916 7.91927 3.80359 8.26201C3.52803 8.60475 3.39917 9.03898 3.44423 9.47304C3.56738 9.8908 3.85449 10.2437 4.24268 10.4545C4.63087 10.6654 5.0885 10.7169 5.51538 10.5978C5.95798 10.5419 6.36057 10.3183 6.63671 9.97481C6.91285 9.63136 7.04052 9.19552 6.99231 8.76087C6.93186 8.55368 6.83031 8.3602 6.69346 8.19151C6.55661 8.02281 6.38716 7.8822 6.19479 7.77773C6.00242 7.67326 5.79091 7.60698 5.57237 7.58267C5.35382 7.55837 5.13253 7.57652 4.92115 7.63609V7.63609Z" fill="#828282"/>
</svg>
