<svg xmlns="http://www.w3.org/2000/svg" width="21" height="21">
  <path data-name="Forma 1" d="M15.2 0H5.79A5.8 5.8 0 0 0 0 5.8v9.4A5.8 5.8 0 0 0 5.79 21h9.41a5.8 5.8 0 0 0 5.8-5.8V5.8A5.8 5.8 0 0 0 15.2 0zm3.94 15.2a3.948 3.948 0 0 1-3.94 3.94H5.79a3.946 3.946 0 0 1-3.93-3.94V5.8a3.946 3.946 0 0 1 3.93-3.94h9.41a3.948 3.948 0 0 1 3.94 3.94v9.4zM10.5 5.09a5.41 5.41 0 1 0 5.41 5.41 5.42 5.42 0 0 0-5.41-5.41zm0 8.96a3.55 3.55 0 1 1 3.55-3.55 3.551 3.551 0 0 1-3.55 3.55zm5.64-10.54a1.37 1.37 0 0 0-.97.4 1.364 1.364 0 0 0 0 1.93 1.37 1.37 0 0 0 .97.4 1.33 1.33 0 0 0 .96-.4 1.364 1.364 0 0 0 0-1.93 1.33 1.33 0 0 0-.96-.4z" fill-rule="evenodd"/>
</svg>
