<svg xmlns="http://www.w3.org/2000/svg" width="26" height="23">
  <path data-name="Forma 1" d="M19.12 11.59c-.35-.11-.6-.19-.41-.68a2.9 2.9 0 0 0 .01-2.64c-.83-1.23-3.09-1.16-5.68-.03 0 0-.82.37-.61-.3.4-1.34.34-2.46-.28-3.1C10.74 3.37 7 4.89 3.8 8.23 1.39 10.73 0 13.39 0 15.68 0 20.07 5.4 23 10.68 23c6.92 0 11.53-4.46 11.53-7.79a3.959 3.959 0 0 0-3.09-3.62zm-8.42 9.44c-4.22.43-7.86-1.53-8.13-4.38s2.92-5.5 7.13-5.93 7.86 1.53 8.13 4.38-2.92 5.5-7.13 5.93zM26 8.02A7.931 7.931 0 0 0 18.16 0a.935.935 0 0 0 0 1.87 6.085 6.085 0 0 1 6.01 6.15.915.915 0 1 0 1.83 0zm-3.63-.14a5.3 5.3 0 0 0-4.07-4.16.913.913 0 0 0-1.08.73.935.935 0 0 0 .71 1.1 3.437 3.437 0 0 1 2.64 2.71.923.923 0 0 0 1.08.73.944.944 0 0 0 .72-1.11zM8.53 13.51a2.976 2.976 0 0 0-2.56 3.25 2.908 2.908 0 0 0 3.59 1.99 2.955 2.955 0 0 0 2.56-3.25 2.9 2.9 0 0 0-3.59-1.99z" fill-rule="evenodd"/>
</svg>
