<svg width="13" height="13" viewBox="0 0 13 13" fill="none" xmlns="http://www.w3.org/2000/svg">
<path d="M8.2929 4.7072C9.80991 6.22578 9.78909 8.66046 8.30204 10.1558C8.29924 10.1588 8.29594 10.1621 8.2929 10.1652L6.58665 11.8714C5.08174 13.3763 2.63335 13.3761 1.12868 11.8714C-0.376226 10.3668 -0.376226 7.91809 1.12868 6.41344L2.07082 5.4713C2.32067 5.22146 2.75094 5.38751 2.76383 5.74059C2.78029 6.19057 2.86098 6.64264 3.00987 7.07921C3.06029 7.22703 3.02427 7.39055 2.91382 7.501L2.58153 7.83328C1.86993 8.54488 1.84761 9.70356 2.5522 10.4221C3.26375 11.1477 4.43329 11.1521 5.1503 10.4351L6.85655 8.72906C7.57234 8.01328 7.56934 6.85633 6.85655 6.14354C6.76258 6.04975 6.66792 5.97688 6.59398 5.92597C6.54168 5.89005 6.49849 5.84241 6.46786 5.78683C6.43724 5.73126 6.42003 5.6693 6.4176 5.6059C6.40754 5.33759 6.5026 5.06112 6.71462 4.8491L7.24919 4.31451C7.38937 4.17432 7.60928 4.15711 7.77183 4.27056C7.95799 4.40054 8.13235 4.54665 8.2929 4.7072ZM11.8713 1.1286C10.3667 -0.376098 7.91826 -0.376301 6.41336 1.1286L4.70711 2.83485C4.70406 2.83789 4.70076 2.84119 4.69796 2.84424C3.21094 4.33954 3.19009 6.77422 4.70711 8.2928C4.86765 8.45334 5.042 8.59944 5.22815 8.72942C5.3907 8.84286 5.61063 8.82562 5.75079 8.68547L6.28536 8.15087C6.49737 7.93886 6.59244 7.66238 6.58238 7.39408C6.57995 7.33067 6.56274 7.26871 6.53211 7.21314C6.50149 7.15757 6.4583 7.10992 6.40599 7.074C6.33206 7.0231 6.2374 6.95023 6.14343 6.85643C5.43064 6.14364 5.42764 4.9867 6.14343 4.27091L7.84968 2.56492C8.56668 1.84791 9.7362 1.85223 10.4478 2.57787C11.1524 3.29642 11.1301 4.45509 10.4184 5.16669L10.0862 5.49898C9.97571 5.60943 9.93968 5.77294 9.99011 5.92076C10.139 6.35733 10.2197 6.80941 10.2361 7.25938C10.2491 7.61246 10.6793 7.77852 10.9292 7.52867L11.8713 6.58653C13.3762 5.08191 13.3762 2.63324 11.8713 1.1286Z" />
</svg>
