<svg width="17" height="12" viewBox="0 0 17 12" fill="none" xmlns="http://www.w3.org/2000/svg">
<path d="M16.6448 1.87759C16.4493 1.13853 15.8732 0.556469 15.1418 0.358938C13.8161 0 8.5 0 8.5 0C8.5 0 3.18398 0 1.85821 0.358938C1.1268 0.5565 0.550746 1.13853 0.355231 1.87759C0 3.21719 -1.21118e-08 6.01213 -1.21118e-08 6.01213C-1.21118e-08 6.01213 0 8.80706 0.355231 10.1467C0.550746 10.8857 1.1268 11.4435 1.85821 11.6411C3.18398 12 8.5 12 8.5 12C8.5 12 13.816 12 15.1418 11.6411C15.8732 11.4435 16.4493 10.8857 16.6448 10.1467C17 8.80706 17 6.01213 17 6.01213C17 6.01213 17 3.21719 16.6448 1.87759ZM6.76135 8.54972V3.47453L11.2045 6.01219L6.76135 8.54972Z" fill="#828282"/>
</svg>
