<svg width="25" height="21" viewBox="0 0 25 21" fill="none" xmlns="http://www.w3.org/2000/svg">
<path d="M16.9182 6.35483C17.2091 6.35483 17.4909 6.36889 17.7727 6.40638C17.0182 2.7322 13.1955 0 8.85 0C3.97727 0 0 3.41174 0 7.75139C0 10.254 1.33182 12.3207 3.54091 13.9188L2.66364 16.665L5.75455 15.0669C6.86364 15.2919 7.74545 15.5215 8.85455 15.5215C9.13636 15.5215 9.40455 15.5075 9.68636 15.484C9.50455 14.8795 9.40455 14.2374 9.40455 13.572C9.4 9.59317 12.7182 6.35483 16.9182 6.35483V6.35483ZM12.1682 3.8757C12.8273 3.8757 13.2682 4.33028 13.2682 5.01919C13.2682 5.69873 12.8273 6.15331 12.1682 6.15331C11.4955 6.15331 10.8364 5.69873 10.8364 5.01919C10.8409 4.33028 11.5 3.8757 12.1682 3.8757ZM5.96818 6.15331C5.30909 6.15331 4.63636 5.69873 4.63636 5.01919C4.63636 4.3256 5.30909 3.8757 5.96818 3.8757C6.64091 3.8757 7.07727 4.33028 7.07727 5.01919C7.07727 5.70341 6.64091 6.15331 5.96818 6.15331ZM25 13.4689C25 9.81812 21.4591 6.84691 17.4818 6.84691C13.2682 6.84691 9.96364 9.81812 9.96364 13.4689C9.96364 17.1196 13.2727 20.0908 17.4818 20.0908C18.3591 20.0908 19.25 19.8518 20.1455 19.6269L22.5727 21L21.9 18.7224C23.6818 17.3446 25 15.5215 25 13.4689ZM15.0409 12.3207C14.6 12.3207 14.1636 11.8661 14.1636 11.4021C14.1636 10.9476 14.6045 10.4977 15.0409 10.4977C15.7136 10.4977 16.15 10.9522 16.15 11.4021C16.15 11.8708 15.7091 12.3207 15.0409 12.3207ZM19.9091 12.3207C19.4682 12.3207 19.0318 11.8661 19.0318 11.4021C19.0318 10.9476 19.4727 10.4977 19.9091 10.4977C20.5682 10.4977 21.0182 10.9522 21.0182 11.4021C21.0227 11.8708 20.5682 12.3207 19.9091 12.3207Z" />
</svg>
