<svg xmlns="http://www.w3.org/2000/svg" width="22" height="18">
  <path data-name="Forma 1" d="M21.393.33a9.191 9.191 0 0 1-2.868 1.11A4.469 4.469 0 0 0 15.232 0a4.532 4.532 0 0 0-4.514 4.54 4.585 4.585 0 0 0 .117 1.04 12.785 12.785 0 0 1-9.3-4.75 4.574 4.574 0 0 0 1.4 6.07 4.562 4.562 0 0 1-2.044-.57v.05a4.539 4.539 0 0 0 3.62 4.46 4.648 4.648 0 0 1-1.189.16 4.765 4.765 0 0 1-.85-.08 4.537 4.537 0 0 0 4.215 3.16 9.064 9.064 0 0 1-5.6 1.94 9.559 9.559 0 0 1-1.077-.06A12.821 12.821 0 0 0 19.769 5.07l-.015-.59a9.15 9.15 0 0 0 2.256-2.35 9.029 9.029 0 0 1-2.591.72A4.6 4.6 0 0 0 21.393.33z" fill-rule="evenodd"/>
</svg>
